# xmcd
# 
# Track frame offsets:
#     150
#     18632
#     32465
#     50287
#     71975
#     109787
#     125051
#     145548
#     165624
#     191656
#     220766
#     243981
#     262462
#     283027
#     302386
#     318516
# 
# Disc length: 4519
# 
# Revision: 0
# Processed by: cddbd v1.5.2PL0 Copyright (c) Steve Scherf et al.
# Submitted via: BonkEnc v1.0.6
# 
DISCID=ee11a510
DTITLE=Love's Collection Especial - Volume 3
DYEAR=2003
DGENRE=Rhythmic Soul
TTITLE0=desconhecido1
TTITLE1=desconhecido2
TTITLE2=desconhecido3
TTITLE3=desconhecido4
TTITLE4=desconhecido5
TTITLE5=desconhecido6
TTITLE6=desconhecido7
TTITLE7=desconhecido8
TTITLE8=desconhecido9
TTITLE9=desconhecido10
TTITLE10=desconhecido11
TTITLE11=desconhecido12
TTITLE12=desconhecido13
TTITLE13=desconhecido14
TTITLE14=desconhecido15
TTITLE15=desconhecido16
EXTD=YEAR: 2003
EXTT0=
EXTT1=
EXTT2=
EXTT3=
EXTT4=
EXTT5=
EXTT6=
EXTT7=
EXTT8=
EXTT9=
EXTT10=
EXTT11=
EXTT12=
EXTT13=
EXTT14=
EXTT15=
PLAYORDER=
